<mxfile host="app.diagrams.net" agent="Mozilla/5.0 (Windows NT 10.0; Win64; x64) AppleWebKit/537.36 (KHTML, like Gecko) Chrome/130.0.0.0 Safari/537.36" version="24.8.6">
  <diagram name="페이지-1" id="d9227223_PPWMPHp9Vuy">
    <mxGraphModel dx="941" dy="479" grid="1" gridSize="10" guides="1" tooltips="1" connect="1" arrows="1" fold="1" page="1" pageScale="1" pageWidth="827" pageHeight="1169" math="0" shadow="0">
      <root>
        <mxCell id="0" />
        <mxCell id="1" parent="0" />
        <mxCell id="00LmIsSgcKGM7-2PB9lG-1" style="edgeStyle=orthogonalEdgeStyle;rounded=0;orthogonalLoop=1;jettySize=auto;html=1;exitX=0.875;exitY=0.5;exitDx=0;exitDy=0;exitPerimeter=0;entryX=0;entryY=0.5;entryDx=0;entryDy=0;" edge="1" parent="1" source="00LmIsSgcKGM7-2PB9lG-2" target="00LmIsSgcKGM7-2PB9lG-13">
          <mxGeometry relative="1" as="geometry" />
        </mxCell>
        <mxCell id="00LmIsSgcKGM7-2PB9lG-2" value="" style="ellipse;shape=cloud;whiteSpace=wrap;html=1;" vertex="1" parent="1">
          <mxGeometry x="190" y="120" width="120" height="80" as="geometry" />
        </mxCell>
        <mxCell id="00LmIsSgcKGM7-2PB9lG-3" value="" style="ellipse;whiteSpace=wrap;html=1;aspect=fixed;fillColor=#C3ABD0;" vertex="1" parent="1">
          <mxGeometry x="230" y="140" width="10" height="10" as="geometry" />
        </mxCell>
        <mxCell id="00LmIsSgcKGM7-2PB9lG-4" value="" style="ellipse;whiteSpace=wrap;html=1;aspect=fixed;fillColor=#C3ABD0;" vertex="1" parent="1">
          <mxGeometry x="240" y="150" width="10" height="10" as="geometry" />
        </mxCell>
        <mxCell id="00LmIsSgcKGM7-2PB9lG-5" value="" style="ellipse;whiteSpace=wrap;html=1;aspect=fixed;fillColor=#C3ABD0;" vertex="1" parent="1">
          <mxGeometry x="250" y="160" width="10" height="10" as="geometry" />
        </mxCell>
        <mxCell id="00LmIsSgcKGM7-2PB9lG-6" value="" style="ellipse;whiteSpace=wrap;html=1;aspect=fixed;fillColor=#C3ABD0;" vertex="1" parent="1">
          <mxGeometry x="260" y="170" width="10" height="10" as="geometry" />
        </mxCell>
        <mxCell id="00LmIsSgcKGM7-2PB9lG-7" value="" style="ellipse;whiteSpace=wrap;html=1;aspect=fixed;fillColor=#C3ABD0;" vertex="1" parent="1">
          <mxGeometry x="280" y="140" width="10" height="10" as="geometry" />
        </mxCell>
        <mxCell id="00LmIsSgcKGM7-2PB9lG-8" value="" style="ellipse;whiteSpace=wrap;html=1;aspect=fixed;fillColor=#C3ABD0;" vertex="1" parent="1">
          <mxGeometry x="220" y="170" width="10" height="10" as="geometry" />
        </mxCell>
        <mxCell id="00LmIsSgcKGM7-2PB9lG-9" value="" style="ellipse;whiteSpace=wrap;html=1;aspect=fixed;fillColor=#C3ABD0;" vertex="1" parent="1">
          <mxGeometry x="280" y="160" width="10" height="10" as="geometry" />
        </mxCell>
        <mxCell id="00LmIsSgcKGM7-2PB9lG-10" style="edgeStyle=orthogonalEdgeStyle;rounded=0;orthogonalLoop=1;jettySize=auto;html=1;exitX=0.5;exitY=1;exitDx=0;exitDy=0;entryX=0.5;entryY=0;entryDx=0;entryDy=0;" edge="1" parent="1" source="00LmIsSgcKGM7-2PB9lG-11" target="00LmIsSgcKGM7-2PB9lG-16">
          <mxGeometry relative="1" as="geometry" />
        </mxCell>
        <mxCell id="00LmIsSgcKGM7-2PB9lG-11" value="학습&lt;div&gt;(데이터 분석)&lt;/div&gt;" style="shape=process;whiteSpace=wrap;html=1;backgroundOutline=1;" vertex="1" parent="1">
          <mxGeometry x="480" y="130" width="120" height="60" as="geometry" />
        </mxCell>
        <mxCell id="00LmIsSgcKGM7-2PB9lG-12" style="edgeStyle=orthogonalEdgeStyle;rounded=0;orthogonalLoop=1;jettySize=auto;html=1;exitX=1;exitY=0.5;exitDx=0;exitDy=0;entryX=0;entryY=0.5;entryDx=0;entryDy=0;" edge="1" parent="1" source="00LmIsSgcKGM7-2PB9lG-13" target="00LmIsSgcKGM7-2PB9lG-11">
          <mxGeometry relative="1" as="geometry" />
        </mxCell>
        <mxCell id="00LmIsSgcKGM7-2PB9lG-13" value="데이터 전처리" style="shape=process;whiteSpace=wrap;html=1;backgroundOutline=1;" vertex="1" parent="1">
          <mxGeometry x="330" y="130" width="120" height="60" as="geometry" />
        </mxCell>
        <mxCell id="00LmIsSgcKGM7-2PB9lG-14" value="학습 데이터" style="text;strokeColor=none;align=center;fillColor=none;html=1;verticalAlign=middle;whiteSpace=wrap;rounded=0;" vertex="1" parent="1">
          <mxGeometry x="217.5" y="200" width="75" height="30" as="geometry" />
        </mxCell>
        <mxCell id="00LmIsSgcKGM7-2PB9lG-15" style="edgeStyle=orthogonalEdgeStyle;rounded=0;orthogonalLoop=1;jettySize=auto;html=1;exitX=0.5;exitY=1;exitDx=0;exitDy=0;entryX=0.5;entryY=0;entryDx=0;entryDy=0;" edge="1" parent="1" source="00LmIsSgcKGM7-2PB9lG-16" target="00LmIsSgcKGM7-2PB9lG-18">
          <mxGeometry relative="1" as="geometry" />
        </mxCell>
        <mxCell id="00LmIsSgcKGM7-2PB9lG-16" value="회귀 함수&lt;div&gt;y = f(x;Θ)&lt;/div&gt;" style="shape=parallelogram;perimeter=parallelogramPerimeter;whiteSpace=wrap;html=1;dashed=0;" vertex="1" parent="1">
          <mxGeometry x="480" y="220" width="120" height="80" as="geometry" />
        </mxCell>
        <mxCell id="00LmIsSgcKGM7-2PB9lG-17" style="edgeStyle=orthogonalEdgeStyle;rounded=0;orthogonalLoop=1;jettySize=auto;html=1;exitX=1;exitY=0.5;exitDx=0;exitDy=0;" edge="1" parent="1" source="00LmIsSgcKGM7-2PB9lG-18" target="00LmIsSgcKGM7-2PB9lG-38">
          <mxGeometry relative="1" as="geometry">
            <mxPoint x="640" y="369.75" as="targetPoint" />
          </mxGeometry>
        </mxCell>
        <mxCell id="00LmIsSgcKGM7-2PB9lG-18" value="y&lt;font style=&quot;font-size: 9px;&quot;&gt;new&lt;/font&gt; = f(x&lt;font style=&quot;font-size: 9px;&quot;&gt;new&lt;/font&gt;;Θ)" style="shape=process;whiteSpace=wrap;html=1;backgroundOutline=1;" vertex="1" parent="1">
          <mxGeometry x="480" y="340" width="120" height="60" as="geometry" />
        </mxCell>
        <mxCell id="00LmIsSgcKGM7-2PB9lG-19" style="edgeStyle=orthogonalEdgeStyle;rounded=0;orthogonalLoop=1;jettySize=auto;html=1;exitX=0.875;exitY=0.5;exitDx=0;exitDy=0;exitPerimeter=0;entryX=0;entryY=0.5;entryDx=0;entryDy=0;" edge="1" parent="1" source="00LmIsSgcKGM7-2PB9lG-20" target="00LmIsSgcKGM7-2PB9lG-30">
          <mxGeometry relative="1" as="geometry" />
        </mxCell>
        <mxCell id="00LmIsSgcKGM7-2PB9lG-20" value="" style="ellipse;shape=cloud;whiteSpace=wrap;html=1;" vertex="1" parent="1">
          <mxGeometry x="195" y="330" width="120" height="80" as="geometry" />
        </mxCell>
        <mxCell id="00LmIsSgcKGM7-2PB9lG-21" value="" style="ellipse;whiteSpace=wrap;html=1;aspect=fixed;fillColor=#dae8fc;strokeColor=#6c8ebf;" vertex="1" parent="1">
          <mxGeometry x="235" y="350" width="10" height="10" as="geometry" />
        </mxCell>
        <mxCell id="00LmIsSgcKGM7-2PB9lG-22" value="" style="ellipse;whiteSpace=wrap;html=1;aspect=fixed;fillColor=#dae8fc;strokeColor=#6c8ebf;" vertex="1" parent="1">
          <mxGeometry x="245" y="360" width="10" height="10" as="geometry" />
        </mxCell>
        <mxCell id="00LmIsSgcKGM7-2PB9lG-23" value="" style="ellipse;whiteSpace=wrap;html=1;aspect=fixed;fillColor=#dae8fc;strokeColor=#6c8ebf;" vertex="1" parent="1">
          <mxGeometry x="255" y="370" width="10" height="10" as="geometry" />
        </mxCell>
        <mxCell id="00LmIsSgcKGM7-2PB9lG-24" value="" style="ellipse;whiteSpace=wrap;html=1;aspect=fixed;fillColor=#dae8fc;strokeColor=#6c8ebf;" vertex="1" parent="1">
          <mxGeometry x="265" y="380" width="10" height="10" as="geometry" />
        </mxCell>
        <mxCell id="00LmIsSgcKGM7-2PB9lG-25" value="" style="ellipse;whiteSpace=wrap;html=1;aspect=fixed;fillColor=#dae8fc;strokeColor=#6c8ebf;" vertex="1" parent="1">
          <mxGeometry x="285" y="350" width="10" height="10" as="geometry" />
        </mxCell>
        <mxCell id="00LmIsSgcKGM7-2PB9lG-26" value="" style="ellipse;whiteSpace=wrap;html=1;aspect=fixed;fillColor=#dae8fc;strokeColor=#6c8ebf;" vertex="1" parent="1">
          <mxGeometry x="225" y="380" width="10" height="10" as="geometry" />
        </mxCell>
        <mxCell id="00LmIsSgcKGM7-2PB9lG-27" value="" style="ellipse;whiteSpace=wrap;html=1;aspect=fixed;fillColor=#dae8fc;strokeColor=#6c8ebf;" vertex="1" parent="1">
          <mxGeometry x="285" y="370" width="10" height="10" as="geometry" />
        </mxCell>
        <mxCell id="00LmIsSgcKGM7-2PB9lG-28" value="테스트 데이터" style="text;strokeColor=none;align=center;fillColor=none;html=1;verticalAlign=middle;whiteSpace=wrap;rounded=0;" vertex="1" parent="1">
          <mxGeometry x="220" y="410" width="85" height="30" as="geometry" />
        </mxCell>
        <mxCell id="00LmIsSgcKGM7-2PB9lG-29" style="edgeStyle=orthogonalEdgeStyle;rounded=0;orthogonalLoop=1;jettySize=auto;html=1;exitX=1;exitY=0.5;exitDx=0;exitDy=0;entryX=0;entryY=0.5;entryDx=0;entryDy=0;" edge="1" parent="1" source="00LmIsSgcKGM7-2PB9lG-30" target="00LmIsSgcKGM7-2PB9lG-18">
          <mxGeometry relative="1" as="geometry" />
        </mxCell>
        <mxCell id="00LmIsSgcKGM7-2PB9lG-30" value="데이터 전처리" style="shape=process;whiteSpace=wrap;html=1;backgroundOutline=1;" vertex="1" parent="1">
          <mxGeometry x="330" y="340" width="120" height="60" as="geometry" />
        </mxCell>
        <mxCell id="00LmIsSgcKGM7-2PB9lG-31" value="{(x1, y1), (x2, y2) ... (xn, yn)}" style="text;strokeColor=none;align=center;fillColor=none;html=1;verticalAlign=middle;whiteSpace=wrap;rounded=0;" vertex="1" parent="1">
          <mxGeometry x="175" y="220" width="170" height="30" as="geometry" />
        </mxCell>
        <mxCell id="00LmIsSgcKGM7-2PB9lG-32" value="{x&lt;font style=&quot;font-size: 9px;&quot;&gt;new&lt;/font&gt;&lt;font style=&quot;font-size: 9px;&quot;&gt;1&lt;/font&gt;, x&lt;font style=&quot;font-size: 9px;&quot;&gt;new2&lt;/font&gt;&amp;nbsp;... x&lt;font style=&quot;font-size: 9px;&quot;&gt;newM&lt;/font&gt;}" style="text;strokeColor=none;align=center;fillColor=none;html=1;verticalAlign=middle;whiteSpace=wrap;rounded=0;" vertex="1" parent="1">
          <mxGeometry x="175" y="430" width="170" height="30" as="geometry" />
        </mxCell>
        <mxCell id="00LmIsSgcKGM7-2PB9lG-33" value="&lt;font color=&quot;#7ea6e0&quot; style=&quot;font-size: 10px;&quot;&gt;특징벡터(x)와 출력값(y)가 함께 존재&lt;/font&gt;" style="text;strokeColor=none;align=center;fillColor=none;html=1;verticalAlign=middle;whiteSpace=wrap;rounded=0;" vertex="1" parent="1">
          <mxGeometry x="162.5" y="236" width="185" height="30" as="geometry" />
        </mxCell>
        <mxCell id="00LmIsSgcKGM7-2PB9lG-34" value="&lt;font color=&quot;#7ea6e0&quot; style=&quot;font-size: 10px;&quot;&gt;특징벡터만 존재&lt;/font&gt;" style="text;strokeColor=none;align=center;fillColor=none;html=1;verticalAlign=middle;whiteSpace=wrap;rounded=0;" vertex="1" parent="1">
          <mxGeometry x="162.5" y="444" width="185" height="30" as="geometry" />
        </mxCell>
        <mxCell id="00LmIsSgcKGM7-2PB9lG-36" value="" style="rounded=0;whiteSpace=wrap;html=1;fillColor=#dae8fc;strokeColor=none;opacity=50;" vertex="1" parent="1">
          <mxGeometry x="512" y="270" width="48" height="10" as="geometry" />
        </mxCell>
        <mxCell id="00LmIsSgcKGM7-2PB9lG-38" value="&lt;div style=&quot;&quot;&gt;예측 결과&lt;/div&gt;&lt;div style=&quot;&quot;&gt;&lt;span style=&quot;&quot;&gt;y&lt;/span&gt;&lt;font style=&quot;font-size: 9px;&quot;&gt;new&lt;/font&gt;&lt;/div&gt;" style="rounded=1;whiteSpace=wrap;html=1;align=center;" vertex="1" parent="1">
          <mxGeometry x="640" y="340" width="110" height="60" as="geometry" />
        </mxCell>
      </root>
    </mxGraphModel>
  </diagram>
</mxfile>
